<svg xmlns="http://www.w3.org/2000/svg" viewBox="0 0 161.69 20.13"><defs><style>.cls-1{fill:#fff;}</style></defs><title>Fichier 2</title><g id="Calque_2" data-name="Calque 2"><g id="Calque_1-2" data-name="Calque 1"><path class="cls-1" d="M21.68,19.17l-.18.33a5,5,0,0,1-2.54.63,4.08,4.08,0,0,1-2.6-.81,8,8,0,0,1-2-3H6.24L4.9,19.77H0L8.3.36h4l6.21,13.92c.6,1.34,1,1.7,1.52,1.7a1.29,1.29,0,0,0,.66-.21l.27.15Zm-14.15-6H13L10.3,6.06Z"/><path class="cls-1" d="M39.89,6.72c0,3.88-2.57,6.36-7.53,6.36H28.58v6.69H23.92V.36h8.45C37.3.36,39.89,2.84,39.89,6.72Zm-4.75.12a2.54,2.54,0,0,0-2.72-2.66H28.58V9.47h3.85A2.52,2.52,0,0,0,35.15,6.84Z"/><path class="cls-1" d="M41.38,16.78v-.42l2.15-2.57h.33A7.34,7.34,0,0,0,49,16.19c1.7,0,2.84-.78,2.84-1.91,0-1.4-1.79-1.85-3.94-2.6-2.63-.9-5.85-2.18-5.85-5.91S45.33,0,49.33,0a8.73,8.73,0,0,1,6.9,2.9v.45L54.08,5.76h-.39a5.82,5.82,0,0,0-4.27-2c-1.46,0-2.54.63-2.54,1.73s1.37,1.76,2.9,2.33c3.17,1.11,6.87,2.3,6.87,6.42,0,3.91-3.31,5.88-7.5,5.88A9.72,9.72,0,0,1,41.38,16.78Z"/><path class="cls-1" d="M63.51,10.06a5.68,5.68,0,0,0,5.76,5.85,6.37,6.37,0,0,0,4.93-2.3h.33L77.4,16v.33a10.36,10.36,0,0,1-8.18,3.79c-5.88,0-10.48-4.3-10.48-10.06S63.33,0,69.27,0A10.37,10.37,0,0,1,77.4,3.79v.33L74.53,6.51H74.2a6.37,6.37,0,0,0-4.93-2.3A5.68,5.68,0,0,0,63.51,10.06Z"/><path class="cls-1" d="M98,.36V19.77H93.37V12H84.92v7.79H80.26V.36h4.66V8.15h8.45V.36Z"/><path class="cls-1" d="M124.51,10.06C124.51,4.3,129.08,0,135.14,0s10.63,4.3,10.63,10.06-4.57,10.06-10.63,10.06S124.51,15.83,124.51,10.06Zm16.51,0a5.88,5.88,0,0,0-11.77,0,5.88,5.88,0,0,0,11.77,0Z"/><path class="cls-1" d="M161.69,19.77H149V.36h4.66V15.95h8.06Z"/><path class="cls-1" d="M111.81,0c-6.06,0-10.63,4.3-10.63,10.06s4.57,10.06,10.63,10.06,10.63-4.33,10.63-10.06S117.87,0,111.81,0Zm0,15.92a5.74,5.74,0,0,1-5.88-5.85,5.67,5.67,0,0,1,3.34-5.31v6.71l2.42-2.74,2.67,2.74V4.75a5.67,5.67,0,0,1,3.34,5.31A5.74,5.74,0,0,1,111.81,15.92Z"/></g></g></svg>